<svg width="31" height="28" viewBox="0 0 31 28" fill="none" xmlns="http://www.w3.org/2000/svg">
<path d="M30.5152 3.72423C30.206 2.99786 29.7627 2.34583 29.1995 1.78619C28.6363 1.22654 27.9797 0.787012 27.2487 0.479792C26.4912 0.161378 25.6871 0 24.8592 0C24.1227 0 23.4016 0.128635 22.7164 0.382397C22.0546 0.627472 21.4443 0.982137 20.9026 1.43637C20.1433 2.0732 19.5544 2.88176 19.1812 3.78304C19.1736 3.77986 19.1662 3.77636 19.1586 3.77318C18.0563 3.30993 16.8861 3.07488 15.6806 3.07488H15.3183C15.0291 3.07488 14.7418 3.08891 14.4572 3.11581L15.6918 5.62252C19.1973 5.62853 22.0473 8.4707 22.0473 11.9455H24.6151C24.6151 10.7594 24.3787 9.58832 23.9124 8.49292C23.4623 7.4356 22.8183 6.48805 21.9982 5.67314C21.812 5.48804 21.6188 5.31329 21.4189 5.14657C21.8414 3.62433 23.2397 2.55098 24.8588 2.55098C26.8269 2.55098 28.4279 4.14271 28.4279 6.09847V21.8467C28.4279 23.8282 26.8059 25.4402 24.8119 25.4402C23.4401 25.4402 22.1647 24.6486 21.5627 23.4236L21.3186 22.9268C21.5542 22.7358 21.781 22.5323 21.9982 22.3167C22.8183 21.5018 23.4623 20.5524 23.9124 19.4951C24.3785 18.3996 24.6151 17.2249 24.6151 16.0388H22.0473C22.0473 17.7929 21.3192 19.3936 20.1466 20.5425L11.7434 3.44875C11.2345 2.41333 10.4457 1.54345 9.4624 0.933021C8.47894 0.322757 7.34619 0 6.18672 0C5.35254 0 4.54258 0.162548 3.77934 0.483467C3.04284 0.793026 2.38165 1.2359 1.81411 1.79989C1.24656 2.36388 0.799544 3.02092 0.487863 3.7528C0.165087 4.51125 0 5.31613 0 6.14508V21.8933C0 22.7161 0.16391 23.5148 0.484165 24.2676C0.793324 24.9939 1.2363 25.646 1.79965 26.2056C2.36283 26.7653 3.01931 27.209 3.75026 27.5162C4.50761 27.8346 5.31186 28 6.13982 28C6.87632 28 7.59719 27.8672 8.28241 27.6136C8.94427 27.3685 9.55452 27.0118 10.0962 26.5576C10.8554 25.921 11.4441 25.1116 11.8173 24.2104C11.8249 24.2136 11.8325 24.2208 11.8402 24.224C12.9425 24.6872 14.1127 24.9263 15.3183 24.9263H15.6806C15.9658 24.9263 16.2489 24.9084 16.5299 24.8822L15.2991 22.3675C11.7993 22.3548 8.96041 19.5194 8.96041 16.0386V11.9532C8.96041 10.1922 9.6838 8.597 10.8562 7.44897C10.8562 7.44897 18.6958 23.4371 18.9907 24.0147C19.062 24.1543 19.2566 24.5434 19.2566 24.5434C19.7655 25.5788 20.5536 26.4485 21.5371 27.059C22.5206 27.6692 23.653 27.9918 24.8124 27.9918C25.6466 27.9918 26.4566 27.8291 27.2196 27.5083C27.9562 27.1988 28.6173 26.7559 29.1847 26.1919C29.7523 25.6279 30.1999 24.9709 30.5115 24.239C30.8342 23.4806 31 22.6757 31 21.8467V6.09847C31 5.27571 30.8356 4.477 30.5152 3.72423ZM9.00059 5.67514C8.18054 6.49005 7.53028 7.43945 7.08024 8.49693C6.61406 9.59233 6.37147 10.7552 6.37147 11.9532V16.0386C6.37147 17.2366 6.61406 18.3995 7.08024 19.4949C7.53028 20.5522 8.17734 21.5016 8.99757 22.3167C9.18367 22.5016 9.37851 22.6775 9.57823 22.8444C9.15559 24.3663 7.75874 25.4402 6.13982 25.4402C4.17172 25.4402 2.57213 23.8491 2.57213 21.8933V6.14508C2.57213 4.1636 4.19357 2.55165 6.18756 2.55165C7.55936 2.55165 8.8345 3.34317 9.43651 4.56821L9.68044 5.06504C9.44475 5.25599 9.21779 5.4593 9.00059 5.67514Z" fill="#00B58C"/>
</svg>
